<?xml version="1.0" encoding="UTF-8" standalone="no"?>
<svg
   xmlns:dc="http://purl.org/dc/elements/1.1/"
   xmlns:cc="http://creativecommons.org/ns#"
   xmlns:rdf="http://www.w3.org/1999/02/22-rdf-syntax-ns#"
   xmlns:svg="http://www.w3.org/2000/svg"
   xmlns="http://www.w3.org/2000/svg"
   xmlns:sodipodi="http://sodipodi.sourceforge.net/DTD/sodipodi-0.dtd"
   xmlns:inkscape="http://www.inkscape.org/namespaces/inkscape"
   id="svg"
   style="display: block;"
   viewBox="0 0 400 400"
   width="400"
   height="400"
   version="1.1"
   sodipodi:docname="Image_sort_new.svg"
   inkscape:version="0.92.3 (2405546, 2018-03-11)">
  <metadata
     id="metadata11">
    <rdf:RDF>
      <cc:Work
         rdf:about="">
        <dc:format>image/svg+xml</dc:format>
        <dc:type
           rdf:resource="http://purl.org/dc/dcmitype/StillImage" />
      </cc:Work>
    </rdf:RDF>
  </metadata>
  <defs
     id="defs9" />
  <sodipodi:namedview
     pagecolor="#ffffff"
     bordercolor="#666666"
     borderopacity="1"
     objecttolerance="10"
     gridtolerance="10"
     guidetolerance="10"
     inkscape:pageopacity="0"
     inkscape:pageshadow="2"
     inkscape:window-width="1752"
     inkscape:window-height="1459"
     id="namedview7"
     showgrid="false"
     inkscape:zoom="1.668772"
     inkscape:cx="64.685092"
     inkscape:cy="327.90573"
     inkscape:window-x="0"
     inkscape:window-y="0"
     inkscape:window-maximized="0"
     inkscape:current-layer="svgg" />
  <g
     id="svgg">
    <path
       id="path0"
       d="M 172.267,65.867 C 172.12,66.013 172,67.453 172,69.067 V 72 h -6.153 -6.153 l -0.281,3 -0.281,3 h -2.333 c -3.565,0 -3.599,0.033 -3.599,3.443 V 84.4 h -15.783 -15.783 l -0.985,3.1 -0.984,3.1 1.043,1.1 1.042,1.1 h 18.883 18.884 l 1.142,-1.367 c 0.627,-0.752 1.474,-1.844 1.881,-2.428 0.407,-0.584 1.585,-1.581 2.617,-2.217 1.089,-0.669 2.252,-1.822 2.771,-2.745 1.68,-2.99 2.872,-3.643 6.649,-3.643 3.791,0 4.875,-0.557 6.222,-3.198 0.427,-0.837 1.388,-1.9 2.136,-2.362 L 184.294,74 h 78.194 78.194 l 1.349,0.909 c 2.891,1.949 3.059,4.511 0.398,6.088 -1.71,1.014 -3.596,2.892 -4.629,4.607 -1.648,2.738 -2.353,2.974 -9.529,3.196 -8.597,0.266 -8.671,0.311 -8.671,5.252 0,7.554 3.335,7.059 -47.918,7.11 l -37.718,0.038 -0.882,0.925 c -0.485,0.509 -1.192,1.504 -1.57,2.212 -0.379,0.708 -1.271,1.596 -1.983,1.975 -3.012,1.6 -3.529,2.495 -3.529,6.11 0,2.636 -0.165,3.551 -0.839,4.64 -1.629,2.637 -0.531,2.538 -28.11,2.538 h -24.99 l -1.28,1.078 -1.281,1.077 1.15,0.921 1.15,0.92 28.238,0.002 c 33.047,0.002 29.492,0.65 29.855,-5.437 0.222,-3.712 0.3,-3.983 1.539,-5.336 l 1.305,-1.425 4.003,-0.137 c 4.451,-0.151 4.614,-0.238 6.178,-3.284 1.75,-3.412 -1.275,-3.179 41.306,-3.179 h 37.637 l 0.869,-0.926 c 0.738,-0.785 0.87,-1.394 0.87,-4.013 0,-6.675 1.133,-7.458 10.8,-7.458 9.652,0 10.8,0.803 10.8,7.557 0,4.414 0.426,4.84 4.84,4.84 7.244,0 7.61,0.699 7.469,14.268 l -0.109,10.469 -1,1.068 c -0.55,0.588 -1.36,1.277 -1.8,1.532 -0.589,0.341 -13.378,0.516 -48.386,0.663 l -47.585,0.2 -1.224,2.191 c -0.939,1.681 -1.718,2.472 -3.351,3.4 -1.579,0.897 -2.354,1.665 -3.006,2.978 -0.484,0.972 -1.381,2.142 -1.993,2.6 l -1.114,0.831 -49.07,-0.067 c -26.989,-0.037 -69.502,-0.186 -94.472,-0.331 l -45.401,-0.264 -0.999,1.063 -0.999,1.064 0.134,28.267 c 0.149,31.332 -0.045,29.276 2.914,30.929 2.693,1.504 3.217,2.523 3.456,6.708 0.204,3.585 0.233,3.67 1.586,4.741 0.759,0.599 2.083,1.744 2.944,2.543 l 1.566,1.453 -10e-4,66.147 c -0.002,64.9 -0.017,66.171 -0.783,67.428 -1.309,2.147 -2.95,2.748 -4.645,1.701 C 61.71,354.861 61.6,354.317 61.6,343.661 v -9.578 l -1.341,-1.142 c -0.737,-0.627 -1.915,-1.452 -2.617,-1.832 -0.714,-0.387 -1.526,-1.29 -1.844,-2.052 -0.592,-1.416 -2.029,-2.784 -4.119,-3.922 -2.701,-1.47 -2.643,-0.946 -2.802,-25.335 l -0.144,-22 -1.041,-1.1 c -0.573,-0.605 -1.257,-1.1 -1.52,-1.1 -0.457,0 -2.115,-1.769 -4.089,-4.363 -0.505,-0.663 -1.601,-1.589 -2.436,-2.059 -3.273,-1.839 -3.022,1.356 -3.247,-41.301 l -0.2,-37.923 -1,-0.768 c -0.788,-0.606 -1.667,-0.77 -4.153,-0.777 C 23.805,188.388 24,189.111 24,162.22 v -21.858 l -1.013,-0.939 C 22.43,138.907 21.355,138.368 20.598,138.226 19.109,137.947 18,136.727 18,135.369 c 0,-1.11 -1.49,-2.693 -3.502,-3.719 -1.142,-0.582 -1.963,-1.454 -2.85,-3.026 -1.414,-2.506 -1.894,-2.722 -5.66,-2.545 L 3.4,126.2 l -0.109,7.042 -0.109,7.042 2.468,0.258 c 1.357,0.142 4.15,0.258 6.206,0.258 h 3.739 l 0.102,27.9 0.103,27.9 6.1,0.11 6.1,0.111 0.005,42.889 c 0.003,23.59 0.114,43.295 0.247,43.79 0.237,0.884 0.352,0.9 6.395,0.9 H 40.8 v 27.944 27.945 l 2.1,0.252 c 1.155,0.139 3.945,0.254 6.2,0.256 l 4.1,0.003 v 15.357 c 0,13.635 0.071,15.385 0.633,15.6 0.824,0.317 328.486,0.307 329.667,-0.009 l 0.9,-0.241 V 325 278.493 l -0.9,-0.241 c -0.495,-0.133 -1.935,-0.244 -3.2,-0.247 L 378,278 v -53 -53 h -3 -3 l -0.005,-2.3 c -0.01,-4.059 -0.045,-4.1 -3.439,-4.1 h -2.952 L 365.502,131.3 365.4,97 359.3,96.89 353.2,96.779 V 81.822 c 0,-8.226 -0.109,-15.241 -0.243,-15.589 -0.253,-0.661 -180.032,-1.025 -180.69,-0.366 M 3.383,84.9 C 3.276,85.179 3.236,91.255 3.294,98.403 L 3.4,111.4 l 2.959,0.119 c 2.757,0.11 3.036,0.044 4.1,-0.975 L 11.6,109.45 v -6.345 C 11.6,92.12 10.103,92.8 34.289,92.8 h 18.794 l 1.088,-1.009 C 55.38,90.672 55.354,89.875 53.997,86.4 L 53.294,84.6 28.436,84.497 C 8.678,84.415 3.537,84.498 3.383,84.9 m 351.154,52.422 c 2.678,1.755 2.66,1.623 2.662,18.936 l 10e-4,15.657 1.113,1.143 c 0.613,0.628 1.698,1.452 2.412,1.83 0.714,0.379 1.608,1.274 1.987,1.99 0.887,1.678 3.046,3.922 3.773,3.922 0.311,0 1.094,0.552 1.74,1.226 l 1.175,1.226 0.105,50.453 0.104,50.453 0.871,0.927 c 0.479,0.51 1.646,1.382 2.593,1.937 3.127,1.832 2.927,-0.766 2.927,37.978 0,38.226 0.143,36.105 -2.542,37.764 l -1.361,0.841 -147.166,-0.102 C 83.855,363.404 77.719,363.37 76.663,362.678 c -2.917,-1.911 -2.66,5.964 -2.662,-81.503 L 74,202.95 72.9,201.931 c -0.605,-0.56 -1.661,-1.338 -2.346,-1.729 -1.86,-1.061 -2.441,-2.41 -2.759,-6.402 -0.317,-3.972 -0.652,-4.604 -3.111,-5.859 -3.123,-1.594 -3.081,-1.335 -3.081,-19.141 0,-17.472 -0.021,-17.321 2.66,-19.078 1.053,-0.69 5.282,-0.727 95.19,-0.834 l 94.089,-0.112 1.129,-1.39 c 0.621,-0.765 1.643,-2.02 2.27,-2.788 0.628,-0.769 1.348,-1.404 1.6,-1.411 0.73,-0.021 2.062,-1.292 3.151,-3.005 1.336,-2.104 2.403,-3.011 3.992,-3.393 3.122,-0.75 87.669,-0.243 88.853,0.533"
       inkscape:connector-curvature="0"
       style="fill:#282828;fill-rule:evenodd;stroke:none"
       sodipodi:nodetypes="cscccccssccccccccccsccscccccccccscccccscscccccccccccsccsssscccccccccccccccccccccccccsccccccccsccscccscccscccccccscccccccsccccccscccccccccccccscccccsccccccccssccccccccccccsccccccsccccccccccscsccccccc" />
    <path
       id="path1"
       fill="#5c93f9"
       fill-rule="evenodd"
       stroke="none"
       d="M 53.445 16.228 C 52.727 18.098 53.201 84.374 53.946 86.274 C 55.357 89.876 55.389 90.663 54.171 91.791 L 53.083 92.8 L 34.289 92.8 C 10.103 92.8 11.6 92.12 11.6 103.105 L 11.6 109.45 L 10.444 110.558 C 9.354 111.602 9.111 111.659 6.243 111.533 L 3.198 111.4 L 3.198 118.8 L 3.198 126.2 L 5.83 126.064 C 9.693 125.866 10.223 126.099 11.648 128.624 C 12.535 130.196 13.356 131.068 14.498 131.65 C 16.51 132.676 18 134.259 18 135.369 C 18 136.727 19.109 137.947 20.598 138.226 C 21.355 138.368 22.43 138.907 22.987 139.423 L 24 140.362 L 24 162.22 C 24 189.111 23.805 188.388 31.047 188.409 C 33.533 188.416 34.412 188.58 35.2 189.186 L 36.2 189.954 L 36.4 227.877 C 36.625 270.534 36.374 267.339 39.647 269.178 C 40.482 269.648 41.578 270.574 42.083 271.237 C 44.057 273.831 45.715 275.6 46.172 275.6 C 46.435 275.6 47.119 276.095 47.692 276.7 L 48.733 277.8 L 48.877 299.8 C 49.036 324.189 48.978 323.665 51.679 325.135 C 53.769 326.273 55.206 327.641 55.798 329.057 C 56.116 329.819 56.928 330.722 57.642 331.109 C 58.344 331.489 59.522 332.314 60.259 332.941 L 61.6 334.083 L 61.6 343.661 C 61.6 354.317 61.71 354.861 64.171 356.382 C 65.866 357.429 67.507 356.828 68.816 354.681 C 69.582 353.424 69.597 352.153 69.599 287.253 L 69.6 221.106 L 68.034 219.653 C 67.173 218.854 65.849 217.709 65.09 217.11 C 63.737 216.039 63.708 215.954 63.504 212.369 C 63.265 208.184 62.741 207.165 60.048 205.661 C 57.089 204.008 57.283 206.064 57.134 174.732 L 57 146.465 L 57.999 145.401 L 58.998 144.338 L 104.399 144.602 C 129.369 144.747 171.882 144.896 198.871 144.933 L 247.941 145 L 249.055 144.169 C 249.667 143.711 250.564 142.541 251.048 141.569 C 251.7 140.256 252.475 139.488 254.054 138.591 C 255.687 137.663 256.466 136.872 257.405 135.191 L 258.629 133 L 306.214 132.8 C 341.222 132.653 354.011 132.478 354.6 132.137 C 355.04 131.882 355.85 131.193 356.4 130.605 L 357.4 129.537 L 357.509 119.068 C 357.65 105.499 357.284 104.8 350.04 104.8 C 345.626 104.8 345.2 104.374 345.2 99.96 C 345.2 93.206 344.052 92.403 334.4 92.403 C 324.714 92.403 323.6 93.178 323.6 99.917 C 323.6 102.686 323.49 103.164 322.674 103.93 L 321.748 104.8 L 284.168 104.8 C 241.65 104.8 244.668 104.567 242.918 107.979 C 241.354 111.025 241.191 111.112 236.74 111.263 L 232.737 111.4 L 231.432 112.825 C 230.193 114.178 230.115 114.449 229.893 118.161 C 229.53 124.248 233.085 123.6 200.038 123.598 L 171.8 123.596 L 170.65 122.676 L 169.5 121.755 L 170.781 120.678 L 172.061 119.6 L 197.051 119.6 C 224.63 119.6 223.532 119.699 225.161 117.062 C 225.835 115.973 226 115.058 226 112.422 C 226 108.807 226.517 107.912 229.529 106.312 C 230.241 105.933 231.133 105.045 231.512 104.337 C 231.89 103.629 232.597 102.634 233.082 102.125 L 233.964 101.2 L 271.682 101.162 C 322.935 101.111 319.6 101.606 319.6 94.052 C 319.6 89.111 319.674 89.066 328.271 88.8 C 335.447 88.578 336.152 88.342 337.8 85.604 C 338.833 83.889 340.719 82.011 342.429 80.997 C 345.09 79.42 344.922 76.858 342.031 74.909 L 340.682 74 L 262.488 74 L 184.294 74 L 182.935 74.84 C 182.187 75.302 181.226 76.365 180.799 77.202 C 179.452 79.843 178.368 80.4 174.577 80.4 C 170.8 80.4 169.608 81.053 167.928 84.043 C 167.409 84.966 166.246 86.119 165.157 86.788 C 164.125 87.424 162.947 88.421 162.54 89.005 C 162.133 89.589 161.286 90.681 160.659 91.433 L 159.517 92.8 L 140.633 92.8 L 121.75 92.8 L 120.693 91.697 L 119.637 90.594 L 120.838 87.019 L 122.04 83.444 L 121.92 49.955 C 121.854 31.536 121.65 16.316 121.467 16.133 C 120.801 15.468 53.7 15.561 53.445 16.228 M 340.316 77.456 C 341.595 77.799 341.233 78.439 339.404 79.072 C 337.304 79.799 336.479 80.628 335.928 82.565 C 335.061 85.61 332.872 86.4 325.308 86.4 C 319.048 86.4 316.878 88.161 316.509 93.539 C 316.185 98.262 320.855 97.772 274.007 98 L 232.937 98.2 L 231.525 99.277 C 230.748 99.87 229.8 101.013 229.418 101.818 C 229.037 102.622 228.183 103.578 227.523 103.94 C 223.979 105.886 223.154 107.313 222.799 112.111 C 222.431 117.074 225.295 116.6 195.68 116.6 L 169.8 116.6 L 167.965 115.5 L 166.13 114.4 L 144.191 114.4 C 119.582 114.4 119.875 114.433 118.015 111.424 C 116.293 108.638 117.096 97.124 119.064 96.376 C 119.631 96.16 128.398 96 139.63 96 C 158.793 96 159.247 95.982 161.027 95.145 C 162.75 94.335 164.8 92.037 164.8 90.914 C 164.8 90.639 165.682 89.966 166.761 89.42 C 168.837 88.368 170.141 86.993 170.99 84.962 C 171.502 83.737 171.543 83.722 175.119 83.49 C 179.909 83.18 181.703 82.186 183.348 78.93 C 183.701 78.232 184.307 77.578 184.695 77.477 C 185.772 77.196 339.269 77.176 340.316 77.456 M 341.115 96.1 C 341.342 96.375 341.656 98.31 341.813 100.4 C 342.277 106.56 343.447 107.731 349.6 108.19 C 351.69 108.345 353.625 108.658 353.9 108.885 C 354.751 109.587 354.602 127.514 353.738 128.469 C 353.104 129.169 351.105 129.2 306.223 129.2 L 259.37 129.2 L 257.585 130.1 C 256.231 130.783 255.553 131.483 254.776 133 C 253.983 134.549 253.348 135.193 251.962 135.855 C 249.915 136.833 249.319 137.451 248.2 139.753 C 247.098 142.022 249.518 141.915 198.262 141.96 C 144.35 142.008 146.483 142.213 152.046 137.522 C 153.169 136.576 154.5 134.991 155.004 134.001 C 156.079 131.89 157.197 130.793 159.4 129.687 C 160.28 129.246 161.596 128.143 162.324 127.236 C 164.339 124.727 165.427 124.119 166.372 124.975 C 168.329 126.746 169.325 126.8 200.004 126.8 L 229.082 126.8 L 230.441 125.892 C 232.485 124.526 233.199 122.752 233.199 119.031 C 233.2 114.748 233.533 114.4 237.636 114.4 C 242.157 114.4 244.825 113.017 245.406 110.371 C 245.907 108.092 243.825 108.216 285.161 108 C 319.931 107.818 323.485 107.74 324.337 107.137 C 326.11 105.881 326.527 104.812 326.845 100.704 C 327.014 98.524 327.365 96.483 327.625 96.17 C 328.267 95.396 340.481 95.333 341.115 96.1 M 56.35 96.75 C 57.31 97.71 58 101.645 58 106.153 C 58 110.171 57.523 111.408 55.331 113.079 L 53.861 114.2 L 36.63 114.177 C 16.836 114.15 15.769 114.024 14.895 111.6 C 14.289 109.922 14.612 97.309 15.281 96.503 C 16.064 95.559 55.396 95.796 56.35 96.75 M 265.684 136.789 C 264.095 137.171 263.028 138.078 261.692 140.182 C 260.603 141.895 259.271 143.166 258.541 143.187 C 258.289 143.194 257.569 143.829 256.941 144.598 C 256.314 145.366 255.292 146.621 254.671 147.386 L 253.542 148.776 L 159.453 148.888 C 69.545 148.995 65.316 149.032 64.263 149.722 C 61.582 151.479 61.603 151.328 61.603 168.8 C 61.603 186.606 61.561 186.347 64.684 187.941 C 67.143 189.196 67.478 189.828 67.795 193.8 C 68.113 197.792 68.694 199.141 70.554 200.202 C 71.239 200.593 72.295 201.371 72.9 201.931 L 74 202.95 L 74.001 281.175 C 74.003 368.642 73.746 360.767 76.663 362.678 C 77.719 363.37 83.855 363.404 224.931 363.503 L 372.097 363.605 L 373.458 362.764 C 376.143 361.105 376 363.226 376 325 C 376 286.256 376.2 288.854 373.073 287.022 C 372.126 286.467 370.959 285.595 370.48 285.085 L 369.609 284.158 L 369.505 233.705 L 369.4 183.252 L 368.225 182.026 C 367.579 181.352 366.796 180.8 366.485 180.8 C 365.758 180.8 363.599 178.556 362.712 176.878 C 362.333 176.162 361.439 175.267 360.725 174.888 C 360.011 174.51 358.926 173.686 358.313 173.058 L 357.2 171.915 L 357.199 156.258 C 357.197 138.945 357.215 139.077 354.537 137.322 C 353.353 136.546 268.806 136.039 265.684 136.789 M 353.467 140.133 C 353.65 140.316 353.89 147.709 354 156.563 L 354.2 172.66 L 355.278 174.288 C 355.87 175.183 357.13 176.343 358.078 176.865 C 359.169 177.467 360.046 178.338 360.472 179.242 C 361.183 180.75 363.089 182.572 365.077 183.645 C 366.781 184.564 366.796 185.014 366.798 238.52 C 366.8 289.194 366.651 286.03 369.135 288.052 C 369.775 288.574 370.862 289.307 371.55 289.681 L 372.8 290.363 L 372.8 324.932 C 372.8 353.618 372.707 359.579 372.255 359.954 C 371.4 360.664 78.631 360.391 77.92 359.68 C 77.498 359.258 77.362 344.369 77.2 280.88 C 76.972 191.732 77.378 200.63 73.443 198.386 L 71.4 197.22 L 70.957 193.223 C 70.449 188.633 69.619 187.132 66.704 185.526 L 65 184.587 L 64.674 180.193 C 64.11 172.602 64.598 153.63 65.378 152.851 C 65.974 152.255 73.912 152.183 160.114 152 L 254.2 151.8 L 255.714 150.859 C 256.646 150.279 257.601 149.182 258.197 148.006 C 258.853 146.712 259.491 146.014 260.175 145.842 C 261.693 145.461 263.837 143.389 264.545 141.62 C 265.097 140.24 265.357 140.03 266.687 139.886 C 269.63 139.568 353.139 139.805 353.467 140.133 M 30.887 145.662 C 31.755 146.752 33.03 147.685 34.653 148.417 C 37.031 149.49 37.431 149.863 39.315 152.762 C 39.802 153.512 40.56 154.321 41 154.561 C 43.14 155.729 44.367 156.917 45.148 158.578 C 45.809 159.986 46.405 160.586 47.781 161.233 C 49.97 162.262 49.935 162.219 52.172 166.567 L 54 170.12 L 54.009 186.56 C 54.017 201.752 54.074 203.125 54.765 204.646 C 55.468 206.194 57.774 208.4 58.689 208.4 C 59.546 208.4 59.93 209.508 60.306 213.066 C 60.78 217.56 61.68 219.222 64.379 220.59 L 66.276 221.551 L 66.536 225.475 C 67.379 238.2 66.536 353.4 65.6 353.4 C 65.086 353.4 64.971 351.842 64.8 342.581 C 64.572 330.226 64.507 329.966 61.501 329.196 C 60.565 328.956 59.598 328.694 59.351 328.612 C 59.104 328.531 58.513 327.66 58.037 326.677 C 57.253 325.057 56.024 323.963 53.4 322.549 C 52.222 321.914 52.1 319.63 52.047 297.235 L 52 277.47 L 51.023 275.803 C 50.388 274.72 49.4 273.796 48.202 273.168 C 46.843 272.454 46.167 271.769 45.627 270.557 C 44.879 268.876 43.012 267.165 41.158 266.46 C 39.618 265.875 39.607 265.587 39.603 226.054 L 39.6 190.309 L 38.715 188.735 C 37.329 186.268 35.662 185.468 31.493 185.269 C 26.86 185.048 27.2 186.7 27.2 164.434 C 27.2 141.605 27.29 141.148 30.887 145.662 M 114.014 176.725 C 112.36 178.378 112.336 179.563 112.476 252.6 C 112.594 314.499 112.633 317.49 113.34 319.4 C 114.608 322.826 115.186 323.2 119.206 323.2 C 126.029 323.2 129.2 325.704 129.2 331.093 C 129.2 334.331 129.252 334.527 130.387 335.588 C 133.092 338.115 131.555 338 162.613 338 L 190.906 338 L 192.253 336.572 C 193.561 335.184 193.6 335.047 193.6 331.798 C 193.6 328.151 193.911 326.976 195.477 324.7 L 196.509 323.2 L 200.191 323.2 C 207.187 323.2 210.4 325.647 210.4 330.975 C 210.4 334.142 210.44 334.281 211.7 335.477 C 214.613 338.241 209.918 338.04 268.585 337.914 L 321.556 337.8 L 322.978 336.422 C 324.384 335.059 324.4 335.005 324.4 331.702 C 324.4 325.568 326.254 323.2 331.059 323.2 C 335.356 323.2 336.382 322.568 338.151 318.837 L 339.4 316.2 L 339.4 265.592 L 339.4 214.983 L 338.06 212.261 C 336.275 208.636 335.222 208.003 330.97 208.001 C 326.206 207.999 324.4 205.637 324.4 199.41 C 324.4 194.392 323.424 193.419 317.8 192.833 C 308.464 191.86 308.14 191.536 307.167 182.2 C 306.771 178.398 306.682 178.136 305.381 176.9 L 304.012 175.6 L 250.166 175.6 L 196.321 175.6 L 195.16 176.842 C 194.165 177.908 194 178.405 193.998 180.342 C 193.986 191.937 190.668 195.062 181.792 191.84 C 178.145 190.516 177.269 188.678 176.556 180.856 L 176.288 177.911 L 174.466 176.756 L 172.643 175.6 L 143.891 175.6 L 115.138 175.6 L 114.014 176.725 M 156.942 193.065 C 159.567 193.313 159.734 193.392 160.842 194.922 L 162 196.52 L 162 249.985 L 162 303.45 L 160.779 304.62 C 157.722 307.549 133.66 307.151 130.307 304.116 C 129.638 303.51 129.6 300.624 129.6 249.885 L 129.6 196.294 L 131.069 194.909 C 131.877 194.147 132.912 193.372 133.369 193.187 C 134.354 192.788 152.994 192.692 156.942 193.065 M 288.11 193.89 C 291.476 195.459 292 196.346 292 200.477 L 292 204.038 L 293.981 206.019 L 295.962 208 L 299.523 208 C 305.03 208 306.772 210.277 307.11 217.918 C 307.417 224.852 307.54 224.8 290.642 224.8 L 277.645 224.8 L 276.525 223.837 C 275.467 222.927 275.391 222.636 275.135 218.537 C 274.84 213.811 274.064 210.698 272.772 209.055 L 271.942 208 L 253.35 208 C 224.771 208 226 207.236 226 225 C 226 243.157 223.695 242 259.879 242 L 285 242.001 L 287.417 243.144 C 291.208 244.938 292 246.149 292 250.156 C 292 255.025 294.137 256.8 300 256.8 C 306.934 256.8 306.968 256.873 307.142 272.035 L 307.284 284.386 L 306.259 286.136 C 304.752 288.707 303.77 289.2 300.161 289.2 C 294.589 289.2 292.372 291.966 292 299.386 C 291.634 306.682 293.313 306.402 249.918 306.391 C 208.721 306.381 210.8 306.699 210.8 300.409 C 210.8 292.869 207.131 289.2 199.591 289.2 C 196.127 289.2 195.791 288.991 194.431 285.993 C 193.393 283.705 193.295 278.964 194.247 277.08 C 195.898 273.811 194.964 274 209.48 274 L 222.421 274 L 224.211 275.789 L 226 277.579 L 226 281.009 C 226 289.234 227.159 289.6 253.222 289.6 L 271.861 289.6 L 272.705 288.7 C 274.915 286.346 275.185 284.883 275.154 275.4 C 275.11 261.991 274.865 259.528 273.425 258.026 L 272.25 256.8 L 244.112 256.8 C 213.703 256.8 214.765 256.872 212.1 254.625 C 210.832 253.556 210.8 253.45 210.8 250.312 C 210.8 244.574 208.106 242.376 200.614 242 C 194.391 241.688 193.6 239.77 193.6 225 C 193.6 210.23 194.391 208.312 200.614 208 C 208.034 207.628 210.8 205.411 210.8 199.839 C 210.8 196.268 211.284 195.277 213.751 193.791 L 215.4 192.798 L 250.8 192.899 L 286.2 193 L 288.11 193.89" />
    <path
       id="path2"
       fill="#ffff66"
       fill-rule="evenodd"
       stroke="none"
       d="M 184.695 77.477 C 184.307 77.578 183.701 78.232 183.348 78.93 C 181.703 82.186 179.909 83.18 175.119 83.49 C 171.543 83.722 171.502 83.737 170.99 84.962 C 170.141 86.993 168.837 88.368 166.761 89.42 C 165.682 89.966 164.8 90.639 164.8 90.914 C 164.8 92.037 162.75 94.335 161.027 95.145 C 159.247 95.982 158.793 96 139.63 96 C 128.398 96 119.631 96.16 119.064 96.376 C 117.096 97.124 116.293 108.638 118.015 111.424 C 119.875 114.433 119.582 114.4 144.191 114.4 L 166.13 114.4 L 167.965 115.5 L 169.8 116.6 L 195.68 116.6 C 225.295 116.6 222.431 117.074 222.799 112.111 C 223.154 107.313 223.979 105.886 227.523 103.94 C 228.183 103.578 229.037 102.622 229.418 101.818 C 229.8 101.013 230.748 99.87 231.525 99.277 L 232.937 98.2 L 274.007 98 C 320.855 97.772 316.185 98.262 316.509 93.539 C 316.878 88.161 319.048 86.4 325.308 86.4 C 332.872 86.4 335.061 85.61 335.928 82.565 C 336.479 80.628 337.304 79.799 339.404 79.072 C 341.233 78.439 341.595 77.799 340.316 77.456 C 339.269 77.176 185.772 77.196 184.695 77.477 M 327.625 96.17 C 327.365 96.483 327.014 98.524 326.845 100.704 C 326.527 104.812 326.11 105.881 324.337 107.137 C 323.485 107.74 319.931 107.818 285.161 108 C 243.825 108.216 245.907 108.092 245.406 110.371 C 244.825 113.017 242.157 114.4 237.636 114.4 C 233.533 114.4 233.2 114.748 233.199 119.031 C 233.199 122.752 232.485 124.526 230.441 125.892 L 229.082 126.8 L 200.004 126.8 C 169.325 126.8 168.329 126.746 166.372 124.975 C 165.427 124.119 164.339 124.727 162.324 127.236 C 161.596 128.143 160.28 129.246 159.4 129.687 C 157.197 130.793 156.079 131.89 155.004 134.001 C 154.5 134.991 153.169 136.576 152.046 137.522 C 146.483 142.213 144.35 142.008 198.262 141.96 C 249.518 141.915 247.098 142.022 248.2 139.753 C 249.319 137.451 249.915 136.833 251.962 135.855 C 253.348 135.193 253.983 134.549 254.776 133 C 255.553 131.483 256.231 130.783 257.585 130.1 L 259.37 129.2 L 306.223 129.2 C 351.105 129.2 353.104 129.169 353.738 128.469 C 354.602 127.514 354.751 109.587 353.9 108.885 C 353.625 108.658 351.69 108.345 349.6 108.19 C 343.447 107.731 342.277 106.56 341.813 100.4 C 341.656 98.31 341.342 96.375 341.115 96.1 C 340.481 95.333 328.267 95.396 327.625 96.17 M 15.281 96.503 C 14.612 97.309 14.289 109.922 14.895 111.6 C 15.769 114.024 16.836 114.15 36.63 114.177 L 53.861 114.2 L 55.331 113.079 C 57.523 111.408 58 110.171 58 106.153 C 58 101.645 57.31 97.71 56.35 96.75 C 55.396 95.796 16.064 95.559 15.281 96.503 M 266.687 139.886 C 265.357 140.03 265.097 140.24 264.545 141.62 C 263.837 143.389 261.693 145.461 260.175 145.842 C 259.491 146.014 258.853 146.712 258.197 148.006 C 257.601 149.182 256.646 150.279 255.714 150.859 L 254.2 151.8 L 160.114 152 C 73.912 152.183 65.974 152.255 65.378 152.851 C 64.598 153.63 64.11 172.602 64.674 180.193 L 65 184.587 L 66.704 185.526 C 69.619 187.132 70.449 188.633 70.957 193.223 L 71.4 197.22 L 73.443 198.386 C 77.378 200.63 76.972 191.732 77.2 280.88 C 77.362 344.369 77.498 359.258 77.92 359.68 C 78.631 360.391 371.4 360.664 372.255 359.954 C 372.707 359.579 372.8 353.618 372.8 324.932 L 372.8 290.363 L 371.55 289.681 C 370.862 289.307 369.775 288.574 369.135 288.052 C 366.651 286.03 366.8 289.194 366.798 238.52 C 366.796 185.014 366.781 184.564 365.077 183.645 C 363.089 182.572 361.183 180.75 360.472 179.242 C 360.046 178.338 359.169 177.467 358.078 176.865 C 357.13 176.343 355.87 175.183 355.278 174.288 L 354.2 172.66 L 354 156.563 C 353.89 147.709 353.65 140.316 353.467 140.133 C 353.139 139.805 269.63 139.568 266.687 139.886 M 27.637 144.465 C 27.088 146.04 27.027 182.693 27.571 184.124 C 27.918 185.037 28.169 185.11 31.493 185.269 C 35.662 185.468 37.329 186.268 38.715 188.735 L 39.6 190.309 L 39.603 226.054 C 39.607 265.587 39.618 265.875 41.158 266.46 C 43.012 267.165 44.879 268.876 45.627 270.557 C 46.167 271.769 46.843 272.454 48.202 273.168 C 49.4 273.796 50.388 274.72 51.023 275.803 L 52 277.47 L 52.047 297.235 C 52.1 319.63 52.222 321.914 53.4 322.549 C 56.024 323.963 57.253 325.057 58.037 326.677 C 58.513 327.66 59.104 328.531 59.351 328.612 C 59.598 328.694 60.565 328.956 61.501 329.196 C 64.507 329.966 64.572 330.226 64.8 342.581 C 64.971 351.842 65.086 353.4 65.6 353.4 C 66.536 353.4 67.379 238.2 66.536 225.475 L 66.276 221.551 L 64.379 220.59 C 61.68 219.222 60.78 217.56 60.306 213.066 C 59.93 209.508 59.546 208.4 58.689 208.4 C 57.774 208.4 55.468 206.194 54.765 204.646 C 54.074 203.125 54.017 201.752 54.009 186.56 L 54 170.12 L 52.172 166.567 C 49.935 162.219 49.97 162.262 47.781 161.233 C 46.405 160.586 45.809 159.986 45.148 158.578 C 44.367 156.917 43.14 155.729 41 154.561 C 40.56 154.321 39.802 153.512 39.315 152.762 C 37.431 149.863 37.031 149.49 34.653 148.417 C 33.03 147.685 31.755 146.752 30.887 145.662 C 28.921 143.196 28.176 142.921 27.637 144.465 M 174.466 176.756 L 176.288 177.911 L 176.556 180.856 C 177.269 188.678 178.145 190.516 181.792 191.84 C 190.668 195.062 193.986 191.937 193.998 180.342 C 194 178.405 194.165 177.908 195.16 176.842 L 196.321 175.6 L 250.166 175.6 L 304.012 175.6 L 305.381 176.9 C 306.682 178.136 306.771 178.398 307.167 182.2 C 308.14 191.536 308.464 191.86 317.8 192.833 C 323.424 193.419 324.4 194.392 324.4 199.41 C 324.4 205.637 326.206 207.999 330.97 208.001 C 335.222 208.003 336.275 208.636 338.06 212.261 L 339.4 214.983 L 339.4 265.592 L 339.4 316.2 L 338.151 318.837 C 336.382 322.568 335.356 323.2 331.059 323.2 C 326.254 323.2 324.4 325.568 324.4 331.702 C 324.4 335.005 324.384 335.059 322.978 336.422 L 321.556 337.8 L 268.585 337.914 C 209.918 338.04 214.613 338.241 211.7 335.477 C 210.44 334.281 210.4 334.142 210.4 330.975 C 210.4 325.647 207.187 323.2 200.191 323.2 L 196.509 323.2 L 195.477 324.7 C 193.911 326.976 193.6 328.151 193.6 331.798 C 193.6 335.047 193.561 335.184 192.253 336.572 L 190.906 338 L 162.613 338 C 131.555 338 133.092 338.115 130.387 335.588 C 129.252 334.527 129.2 334.331 129.2 331.093 C 129.2 325.704 126.029 323.2 119.206 323.2 C 115.186 323.2 114.608 322.826 113.34 319.4 C 112.633 317.49 112.594 314.499 112.476 252.6 C 112.336 179.563 112.36 178.378 114.014 176.725 L 115.138 175.6 L 143.891 175.6 L 172.643 175.6 L 174.466 176.756 M 133.369 193.187 C 132.912 193.372 131.877 194.147 131.069 194.909 L 129.6 196.294 L 129.6 249.885 C 129.6 310.292 129.235 303.949 132.807 305.569 C 134.449 306.314 135.376 306.38 143.8 306.359 C 156.922 306.327 159.246 306.089 160.779 304.62 L 162 303.45 L 162 249.985 L 162 196.52 L 160.842 194.922 C 159.734 193.392 159.567 193.313 156.942 193.065 C 152.994 192.692 134.354 192.788 133.369 193.187 M 213.751 193.791 C 211.284 195.277 210.8 196.268 210.8 199.839 C 210.8 205.411 208.034 207.628 200.614 208 C 194.391 208.312 193.6 210.23 193.6 225 C 193.6 239.77 194.391 241.688 200.614 242 C 208.106 242.376 210.8 244.574 210.8 250.312 C 210.8 253.45 210.832 253.556 212.1 254.625 C 214.765 256.872 213.703 256.8 244.112 256.8 L 272.25 256.8 L 273.425 258.026 C 276.471 261.204 275.906 285.291 272.705 288.7 L 271.861 289.6 L 253.222 289.6 C 227.159 289.6 226 289.234 226 281.009 L 226 277.579 L 224.211 275.789 L 222.421 274 L 209.48 274 C 194.964 274 195.898 273.811 194.247 277.08 C 193.295 278.964 193.393 283.705 194.431 285.993 C 195.791 288.991 196.127 289.2 199.591 289.2 C 207.131 289.2 210.8 292.869 210.8 300.409 C 210.8 306.699 208.721 306.381 249.918 306.391 C 293.313 306.402 291.634 306.682 292 299.386 C 292.372 291.966 294.589 289.2 300.161 289.2 C 303.77 289.2 304.752 288.707 306.259 286.136 L 307.284 284.386 L 307.142 272.035 C 306.968 256.873 306.934 256.8 300 256.8 C 294.137 256.8 292 255.025 292 250.156 C 292 246.149 291.208 244.938 287.417 243.144 L 285 242.001 L 259.879 242 C 223.695 242 226 243.157 226 225 C 226 207.236 224.771 208 253.35 208 L 271.942 208 L 272.772 209.055 C 274.064 210.698 274.84 213.811 275.135 218.537 C 275.391 222.636 275.467 222.927 276.525 223.837 L 277.645 224.8 L 290.642 224.8 C 307.54 224.8 307.417 224.852 307.11 217.918 C 306.772 210.277 305.03 208 299.523 208 L 295.962 208 L 293.981 206.019 L 292 204.038 L 292 200.477 C 292 196.346 291.476 195.459 288.11 193.89 L 286.2 193 L 250.8 192.899 L 215.4 192.798 L 213.751 193.791" />
  </g>
</svg>
